<?xml version="1.0" standalone="no"?>
<!DOCTYPE svg PUBLIC "-//W3C//DTD SVG 20010904//EN"
 "http://www.w3.org/TR/2001/REC-SVG-20010904/DTD/svg10.dtd">
<svg version="1.0" xmlns="http://www.w3.org/2000/svg"
 width="260.000000pt" height="260.000000pt" viewBox="0 0 260.000000 260.000000"
 preserveAspectRatio="xMidYMid meet">
<metadata>
Created by potrace 1.11, written by Peter Selinger 2001-2013
</metadata>
<g transform="translate(0.000000,260.000000) scale(0.100000,-0.100000)"
fill="#000000" stroke="none">
<path d="M100 1300 l0 -1200 1200 0 1200 0 0 1200 0 1200 -1200 0 -1200 0 0
-1200z m1978 684 c241 -49 366 -238 291 -439 -25 -67 -103 -150 -167 -179
l-42 -19 67 -33 c82 -39 143 -97 181 -167 24 -47 27 -62 27 -157 0 -93 -3
-112 -27 -162 -51 -110 -151 -184 -298 -222 -80 -21 -298 -31 -442 -21 l-108
7 0 689 0 689 23 5 c108 27 384 32 495 9z m-1208 2 c0 -2 106 -313 235 -691
129 -378 235 -691 235 -696 0 -6 -40 -9 -97 -7 l-96 3 -58 175 c-32 96 -66
194 -75 218 l-16 42 -246 0 -247 0 -73 -220 -73 -220 -96 0 c-72 0 -94 3 -90
13 2 6 109 321 238 699 l234 688 113 0 c61 0 112 -2 112 -4z"/>
<path d="M1773 1853 l-33 -4 0 -226 0 -226 135 5 c130 4 138 6 202 39 90 46
127 102 127 192 -1 104 -45 167 -146 203 -43 16 -221 27 -285 17z"/>
<path d="M1740 996 l0 -264 74 -7 c141 -13 295 22 359 83 92 86 101 247 20
342 -68 79 -165 110 -343 110 l-110 0 0 -264z"/>
<path d="M747 1810 c-3 -8 -20 -65 -37 -127 -17 -62 -60 -196 -95 -298 -36
-102 -65 -193 -65 -201 0 -12 33 -14 205 -14 113 0 205 2 205 3 0 2 -36 111
-81 243 -44 131 -91 277 -104 324 -12 47 -25 78 -28 70z"/>
</g>
</svg>
